<svg xmlns="http://www.w3.org/2000/svg" width="34" height="29" viewBox="0 0 34 29"><path fill="none" d="M0 0h34v29H0z"/><path fill="#FFF" d="M13.487 19.641v-9.56l9.195 4.796-9.195 4.764zM33.668 8.422s-.332-2.347-1.352-3.402a4.866 4.866 0 0 0-3.402-1.437c-4.762-.34-11.906-.34-11.906-.34s-7.143 0-11.905.34a4.862 4.862 0 0 0-3.411 1.438C.672 6.049.34 8.422.34 8.422A51.636 51.636 0 0 0 0 13.924v2.553c.016 1.838.128 3.674.34 5.502 0 0 .332 2.347 1.353 3.4 1.293 1.354 2.994 1.311 3.75 1.454 2.722.265 11.565.341 11.565.341s7.145 0 11.906-.357a4.87 4.87 0 0 0 3.395-1.387c1.021-1.029 1.352-3.4 1.352-3.4.212-1.827.326-3.664.341-5.504v-2.55a52.621 52.621 0 0 0-.334-5.554"/></svg>