<svg xmlns="http://www.w3.org/2000/svg" width="32" height="29" viewBox="-1 0 32 29"><path fill="none" d="M-1 0h32v29H-1z"/><path fill="#FFF" d="M31 5.305a13.155 13.155 0 0 1-3.779.989 6.6 6.6 0 0 0 2.889-3.61 13.13 13.13 0 0 1-4.172 1.592A6.57 6.57 0 0 0 21.131 2.2a6.575 6.575 0 0 0-6.576 6.576 6.61 6.61 0 0 0 .168 1.503A18.68 18.68 0 0 1 1.166 3.357a6.538 6.538 0 0 0-.89 3.303 6.575 6.575 0 0 0 2.966 5.478 6.566 6.566 0 0 1-2.966-.821v.079a6.584 6.584 0 0 0 5.28 6.448 6.65 6.65 0 0 1-1.73.229c-.415 0-.829-.04-1.236-.119a6.583 6.583 0 0 0 6.15 4.568 13.183 13.183 0 0 1-8.168 2.817c-.525.002-1.05-.026-1.572-.089a18.61 18.61 0 0 0 10.087 2.967c12.103 0 18.718-10.025 18.718-18.719v-.851A13.357 13.357 0 0 0 31 5.305"/></svg>