<?xml version="1.0" encoding="UTF-8"?>
<svg width="32px" height="26px" viewBox="0 0 32 26" version="1.1" xmlns="http://www.w3.org/2000/svg" xmlns:xlink="http://www.w3.org/1999/xlink">
    <!-- Generator: Sketch 49.3 (51167) - http://www.bohemiancoding.com/sketch -->
    <title>Shape</title>
    <desc>Created with Sketch.</desc>
    <defs></defs>
    <g id="Page-1" stroke="none" stroke-width="1" fill="none" fill-rule="evenodd">
        <path d="M32,3.10501581 C30.7965715,3.62091158 29.5228659,3.95425238 28.221,4.09401581 C29.5877879,3.27840115 30.6137941,1.99633724 31.11,0.48401581 C29.8204345,1.24900285 28.4093656,1.78745484 26.938,2.07601581 C25.6925577,0.747816756 23.9517755,-0.0039751982 22.131,1.58095702e-05 C20.386855,-0.000249479803 18.7140696,0.69249191 17.4807728,1.92578865 C16.2474761,3.15908538 15.5547347,4.83187086 15.555,6.57601581 C15.5533127,7.08179329 15.6096816,7.58609326 15.723,8.07901581 C10.426211,7.8010387 5.49732705,5.28442478 2.166,1.15701581 C1.58145434,2.15951804 1.27427281,3.29954118 1.276,4.46001581 C1.28204243,6.66822729 2.39616627,8.72593813 4.242,9.93801581 C3.2022538,9.9031829 2.1856654,9.62178739 1.276,9.11701581 L1.276,9.19601581 C1.27865216,12.3274916 3.48655516,15.0238095 6.556,15.6440158 C5.99189607,15.7960106 5.41022226,15.8730067 4.826,15.8730158 C4.411,15.8730158 3.997,15.8330158 3.59,15.7540158 C4.45168323,18.4355494 6.92386814,20.2717999 9.74,20.3220158 C7.41108417,22.1519037 4.53380882,23.1442255 1.572,23.1390158 C1.047,23.1410158 0.522,23.1130158 0,23.0500158 C3.00724466,24.9880297 6.50937271,26.0181491 10.087,26.0170158 C22.19,26.0170158 28.805,15.9920158 28.805,7.29801581 L28.805,6.44701581 C30.0561742,5.52721191 31.1373687,4.39627232 32,3.10501581" id="Shape" fill="#00ACED" fill-rule="nonzero"></path>
    </g>
</svg>